<?xml version="1.0" encoding="utf-8"?>
<!-- Generator: Adobe Illustrator 27.7.0, SVG Export Plug-In . SVG Version: 6.00 Build 0)  -->
<svg version="1.1" id="Layer_1" xmlns="http://www.w3.org/2000/svg" xmlns:xlink="http://www.w3.org/1999/xlink" x="0px" y="0px"
	 viewBox="0 0 445 89.3" style="enable-background:new 0 0 445 89.3;" xml:space="preserve">
<style type="text/css">
	.st0{fill:#FFFFFF;}
	.st1{fill:#38B34A;}
	.st2{fill:url(#SVGID_1_);}
</style>
<g>
	<g>
		<path class="st0" d="M117.6,80.4V55.7h3.5v21.6h13.3v3.1H117.6z"/>
		<path class="st0" d="M144.8,77.3h14.4v3.1h-17.9V55.7h17.4v3.1h-13.9V77.3z M144.5,66.4h12.7v3h-12.7V66.4z"/>
		<path class="st0" d="M167.7,80.4V55.7h10.4c2.6,0,4.9,0.5,7,1.5c2,1,3.6,2.5,4.7,4.3c1.1,1.9,1.7,4,1.7,6.4c0,2.4-0.6,4.6-1.7,6.4
			c-1.1,1.9-2.7,3.3-4.7,4.3c-2,1-4.3,1.5-7,1.5H167.7z M171.2,77.3h6.7c2,0,3.8-0.4,5.3-1.2c1.5-0.8,2.6-1.9,3.5-3.3
			c0.8-1.4,1.2-3,1.2-4.8c0-1.9-0.4-3.5-1.2-4.9c-0.8-1.4-2-2.5-3.5-3.2c-1.5-0.8-3.3-1.2-5.3-1.2h-6.7V77.3z"/>
		<path class="st0" d="M210.7,80.6c-1.9,0-3.6-0.3-5.2-0.9c-1.6-0.6-3-1.5-4.2-2.6c-1.2-1.1-2.1-2.5-2.7-4c-0.7-1.5-1-3.2-1-5
			c0-1.8,0.3-3.5,1-5c0.7-1.5,1.6-2.9,2.8-4c1.2-1.1,2.6-2,4.2-2.6c1.6-0.6,3.4-0.9,5.3-0.9c1.9,0,3.7,0.3,5.3,1
			c1.6,0.6,3,1.6,4.1,2.9l-2.2,2.2c-1-1-2.1-1.7-3.3-2.2c-1.2-0.5-2.5-0.7-3.9-0.7c-1.4,0-2.7,0.2-3.9,0.7c-1.2,0.5-2.3,1.1-3.1,2
			c-0.9,0.8-1.6,1.8-2,3c-0.5,1.2-0.7,2.4-0.7,3.8c0,1.3,0.2,2.6,0.7,3.7c0.5,1.2,1.2,2.2,2,3c0.9,0.9,1.9,1.5,3.1,2
			c1.2,0.5,2.5,0.7,3.9,0.7c1.3,0,2.6-0.2,3.8-0.6c1.2-0.4,2.3-1.1,3.4-2.1l2,2.7c-1.2,1-2.6,1.8-4.3,2.3
			C214.1,80.4,212.5,80.6,210.7,80.6z M216.7,77.1v-9.2h3.4v9.6L216.7,77.1z"/>
		<path class="st0" d="M233.1,77.3h14.4v3.1h-17.9V55.7H247v3.1h-13.9V77.3z M232.8,66.4h12.7v3h-12.7V66.4z"/>
		<path class="st0" d="M256,80.4V55.7h9.6c2.2,0,4,0.3,5.5,1s2.7,1.7,3.5,3c0.8,1.3,1.2,2.8,1.2,4.6c0,1.8-0.4,3.3-1.2,4.6
			c-0.8,1.3-2,2.3-3.5,2.9c-1.5,0.7-3.4,1-5.5,1h-7.7l1.6-1.6v9.1H256z M259.5,71.6l-1.6-1.7h7.6c2.3,0,4-0.5,5.1-1.5
			c1.2-1,1.7-2.3,1.7-4.1c0-1.8-0.6-3.1-1.7-4.1c-1.2-1-2.9-1.4-5.1-1.4h-7.6l1.6-1.8V71.6z M272.5,80.4l-6.3-8.9h3.8l6.3,8.9H272.5
			z"/>
	</g>
	<g>
		<polygon class="st1" points="36.6,47.6 48.8,68.5 31.3,68.5 38.2,80.6 70,80.6 37.1,23.8 4.3,80.6 17.6,80.6 		"/>
		<linearGradient id="SVGID_1_" gradientUnits="userSpaceOnUse" x1="34.036" y1="44.64" x2="118.348" y2="44.64">
			<stop  offset="0" style="stop-color:#272661"/>
			<stop  offset="1.288515e-02" style="stop-color:#282B64"/>
			<stop  offset="8.155364e-02" style="stop-color:#2A4378"/>
			<stop  offset="0.1569" style="stop-color:#2B578B"/>
			<stop  offset="0.2382" style="stop-color:#2B689D"/>
			<stop  offset="0.3273" style="stop-color:#2977AE"/>
			<stop  offset="0.4274" style="stop-color:#2683BC"/>
			<stop  offset="0.545" style="stop-color:#238DC7"/>
			<stop  offset="0.6962" style="stop-color:#1F93D0"/>
			<stop  offset="1" style="stop-color:#1D95D3"/>
		</linearGradient>
		<polygon class="st2" points="67.5,8.6 57.2,8.6 46.5,27.1 53.2,38.5 61.9,23.6 74.2,44.6 56.7,44.6 63.5,56.5 81.3,56.5 
			95.1,80.6 109.1,80.6 		"/>
	</g>
	<g>
		<path class="st0" d="M130.1,9.2L114.6,44h8.3l3.1-7.5h16.1l3.1,7.5h8.5L138,9.2H130.1z M128.5,30.5l5.5-13.3l5.5,13.3H128.5z"/>
		<path class="st0" d="M185,26.5c-1.2-0.7-2.5-1.3-3.9-1.8c-1.4-0.5-2.9-0.9-4.3-1.2c-1.5-0.3-2.8-0.6-4-0.9
			c-1.2-0.3-2.2-0.8-2.9-1.3c-0.7-0.6-1.1-1.3-1.1-2.2c0-0.7,0.2-1.4,0.7-2c0.4-0.6,1.2-1.1,2.1-1.4c1-0.3,2.2-0.5,3.8-0.5
			c1.5,0,3.1,0.2,4.8,0.7c1.7,0.4,3.3,1.1,4.8,2l2.5-6.1c-1.6-1-3.5-1.8-5.6-2.3c-2.1-0.5-4.3-0.8-6.5-0.8c-3.3,0-6,0.5-8.2,1.5
			c-2.2,1-3.8,2.3-4.8,3.9c-1.1,1.6-1.6,3.5-1.6,5.4c0,1.8,0.4,3.3,1.1,4.5c0.7,1.2,1.7,2.2,2.9,2.9c1.2,0.7,2.5,1.3,4,1.8
			c1.4,0.4,2.9,0.8,4.3,1.1c1.4,0.3,2.7,0.6,4,1c1.2,0.3,2.2,0.8,2.9,1.3c0.7,0.5,1.1,1.3,1.1,2.2c0,0.7-0.2,1.4-0.7,1.9
			c-0.5,0.5-1.2,1-2.2,1.3c-1,0.3-2.3,0.5-3.9,0.5c-2.1,0-4.2-0.3-6.2-1c-2.1-0.7-3.8-1.5-5.3-2.6l-2.7,6.1c1.6,1.2,3.6,2.2,6.2,2.9
			c2.6,0.7,5.2,1.1,8,1.1c3.3,0,6-0.5,8.2-1.5c2.2-1,3.8-2.3,4.9-3.9c1.1-1.6,1.6-3.4,1.6-5.4c0-1.8-0.4-3.3-1.1-4.5
			C187.2,28.1,186.2,27.2,185,26.5z"/>
		<path class="st0" d="M208.3,18.6c1-1,2.2-1.8,3.5-2.3c1.4-0.5,2.9-0.8,4.5-0.8c1.7,0,3.3,0.3,4.8,1c1.5,0.7,2.8,1.7,4,3.1l5.2-4.8
			c-1.7-2-3.7-3.6-6.2-4.6c-2.5-1-5.2-1.6-8.2-1.6c-2.7,0-5.2,0.4-7.5,1.3c-2.3,0.9-4.3,2.1-6,3.8c-1.7,1.6-3,3.5-4,5.7
			c-0.9,2.2-1.4,4.6-1.4,7.2c0,2.6,0.5,5,1.4,7.2c0.9,2.2,2.3,4.1,4,5.7c1.7,1.6,3.7,2.9,6,3.8c2.3,0.9,4.8,1.3,7.5,1.3
			c3,0,5.8-0.5,8.3-1.6c2.5-1.1,4.5-2.6,6.2-4.6l-5.2-4.8c-1.2,1.4-2.5,2.4-4,3.1c-1.5,0.7-3.1,1.1-4.8,1.1c-1.6,0-3.1-0.3-4.5-0.8
			c-1.4-0.5-2.5-1.3-3.5-2.3c-1-1-1.8-2.2-2.3-3.5c-0.5-1.4-0.8-2.9-0.8-4.5c0-1.7,0.3-3.2,0.8-4.5
			C206.5,20.8,207.3,19.6,208.3,18.6z"/>
		<polygon class="st0" points="247,29.5 263.1,29.5 263.1,23.2 247,23.2 247,15.7 265.3,15.7 265.3,9.2 239,9.2 239,44 265.9,44 
			265.9,37.6 247,37.6 		"/>
		<polygon class="st0" points="299.3,30.4 282,9.2 275.3,9.2 275.3,44 283.3,44 283.3,22.9 300.6,44 307.3,44 307.3,9.2 299.3,9.2 
					"/>
		<path class="st0" d="M344.8,11.4c-2.9-1.4-6.2-2.2-10-2.2H319V44h15.8c3.8,0,7.1-0.7,10-2.2c2.9-1.4,5.1-3.5,6.8-6.1
			c1.6-2.6,2.4-5.7,2.4-9.2c0-3.5-0.8-6.6-2.4-9.2C350,14.9,347.7,12.8,344.8,11.4z M344.4,32.4c-0.9,1.6-2.3,2.9-4,3.8
			c-1.7,0.9-3.7,1.3-6,1.3h-7.3V15.8h7.3c2.3,0,4.3,0.4,6,1.3c1.7,0.9,3,2.1,4,3.8c0.9,1.6,1.4,3.5,1.4,5.8
			C345.9,28.8,345.4,30.7,344.4,32.4z"/>
		<polygon class="st0" points="372.5,29.5 388.6,29.5 388.6,23.2 372.5,23.2 372.5,15.7 390.8,15.7 390.8,9.2 364.5,9.2 364.5,44 
			391.4,44 391.4,37.6 372.5,37.6 		"/>
		<path class="st0" d="M431.7,44l-7.8-11.2c0,0,0,0,0,0c2.3-1,4-2.4,5.2-4.3c1.2-1.9,1.8-4.1,1.8-6.7c0-2.6-0.6-4.8-1.8-6.7
			c-1.2-1.9-3-3.3-5.2-4.4c-2.3-1-4.9-1.5-8.1-1.5h-15.1V44h8.1v-9.7h7c0.1,0,0.2,0,0.3,0L423,44H431.7z M421,17.4
			c1.3,1,1.9,2.5,1.9,4.5c0,1.9-0.6,3.4-1.9,4.5c-1.3,1.1-3.1,1.6-5.6,1.6h-6.5V15.8h6.5C417.9,15.8,419.8,16.3,421,17.4z"/>
	</g>
</g>
</svg>
